<?xml version="1.0"?>
<svg xmlns="http://www.w3.org/2000/svg" xmlns:xlink="http://www.w3.org/1999/xlink" xmlns:svgjs="http://svgjs.com/svgjs" version="1.1" width="512" height="512" x="0" y="0" viewBox="0 0 512 512" style="enable-background:new 0 0 512 512" xml:space="preserve" class=""><g><path xmlns="http://www.w3.org/2000/svg" d="m475.066406 185.816406c10.34375-8.71875 16.933594-21.761718 16.933594-36.316406v-19c0-26.191406-21.308594-47.5-47.5-47.5s-47.5 21.308594-47.5 47.5v19c0 18.316406 10.425781 34.234375 25.652344 42.15625-15.453125 10.320312-25.652344 27.910156-25.652344 47.84375v57.5h-57.5c-18.109375 0-33.261719 12.902344-36.746094 30h-93.507812c-3.484375-17.097656-18.636719-30-36.746094-30h-57.5v-57.5c0-19.933594-10.199219-37.523438-25.652344-47.84375 15.226563-7.921875 25.652344-23.839844 25.652344-42.15625v-19c0-26.191406-21.308594-47.5-47.5-47.5s-47.5 21.308594-47.5 47.5v19c0 14.554688 6.589844 27.597656 16.933594 36.316406-21.574219 8.296875-36.933594 29.222656-36.933594 53.683594v125c0 16.960938 7.386719 32.222656 19.101562 42.757812-10.800781 1.640626-19.101562 10.988282-19.101562 22.242188 0 12.40625 10.09375 22.5 22.5 22.5h20.5v59.5h15v-59.5h15v59.5h15v-59.5h20.5c12.40625 0 22.5-10.09375 22.5-22.5 0-2.628906-.457031-5.152344-1.289062-7.5h15.289062v89.5h15v-104.5h-102.5c-20.875 0-38.285156-15.128906-41.835938-35h156.835938c12.40625 0 22.5 10.09375 22.5 22.5v117h15v-117c0-8.4375-2.800781-16.226562-7.519531-22.5h30.519531v139.5h15v-137.5h15v137.5h15v-139.5h31.519531c-4.71875 6.273438-7.519531 14.0625-7.519531 22.5v117h15v-117c0-12.40625 10.09375-22.5 22.5-22.5h156.835938c-3.550782 19.871094-20.960938 35-41.835938 35h-102.5v104.5h15v-89.5h15.289062c-.832031 2.347656-1.289062 4.871094-1.289062 7.5 0 12.40625 10.09375 22.5 22.5 22.5h20.5v59.5h15v-59.5h15v59.5h15v-59.5h20.5c12.40625 0 22.5-10.09375 22.5-22.5 0-11.253906-8.300781-20.601562-19.101562-22.242188 11.714843-10.535156 19.101562-25.796874 19.101562-42.757812v-125c0-24.460938-15.359375-45.386719-36.933594-53.683594zm-366.566406 236.183594c4.136719 0 7.5 3.363281 7.5 7.5s-3.363281 7.5-7.5 7.5h-86c-4.136719 0-7.5-3.363281-7.5-7.5s3.363281-7.5 7.5-7.5zm388.5 7.5c0 4.136719-3.363281 7.5-7.5 7.5h-86c-4.136719 0-7.5-3.363281-7.5-7.5s3.363281-7.5 7.5-7.5h86c4.136719 0 7.5 3.363281 7.5 7.5zm-85-280v-19c0-17.921875 14.578125-32.5 32.5-32.5s32.5 14.578125 32.5 32.5v19c0 17.921875-14.578125 32.5-32.5 32.5s-32.5-14.578125-32.5-32.5zm-377 0v-19c0-17.921875 14.578125-32.5 32.5-32.5s32.5 14.578125 32.5 32.5v19c0 17.921875-14.578125 32.5-32.5 32.5s-32.5-14.578125-32.5-32.5zm65 207.5h-85v-117.5c0-23.433594 19.066406-42.5 42.5-42.5s42.5 19.066406 42.5 42.5v24.5h-25v-21.5h-15v62c0 20.679688 16.820312 37.5 37.5 37.5h2.5zm30 0h-15v-15h15zm-32.5-30c-12.40625 0-22.5-10.09375-22.5-22.5v-25.5h25v33h72.5c9.777344 0 18.121094 6.269531 21.214844 15zm268.5 30h-221v-15h221zm-47.714844-30c3.09375-8.730469 11.4375-15 21.214844-15h72.5v-33h25v25.5c0 12.40625-10.09375 22.5-22.5 22.5zm78.714844 30h-16v-15h16zm100 0h-85v-15h2.5c20.679688 0 37.5-16.820312 37.5-37.5v-62h-15v21.5h-25v-24.5c0-23.433594 19.066406-42.5 42.5-42.5s42.5 19.066406 42.5 42.5zm0 0" fill="#186569" data-original="#000000" style="" class=""/><path xmlns="http://www.w3.org/2000/svg" d="m333.5 84h53.257812l-53.257812-52.632812v-31.367188h-204.5v117h204.5zm-15 18h-174.5v-87h174.5v22.632812l31.742188 31.367188h-31.742188zm0 0" fill="#186569" data-original="#000000" style="" class=""/><path xmlns="http://www.w3.org/2000/svg" d="m363 257v-117h-174.5v31.9375l-40.285156 52.0625h40.285156v33zm-184.214844-48 24.714844-31.9375v-22.0625h144.5v87h-144.5v-33zm0 0" fill="#186569" data-original="#000000" style="" class=""/><path xmlns="http://www.w3.org/2000/svg" d="m239.5 35.5h15v15h-15zm0 0" fill="#186569" data-original="#000000" style="" class=""/><path xmlns="http://www.w3.org/2000/svg" d="m269.5 35.5h15v15h-15zm0 0" fill="#186569" data-original="#000000" style="" class=""/><path xmlns="http://www.w3.org/2000/svg" d="m179.5 35.5h15v15h-15zm0 0" fill="#186569" data-original="#000000" style="" class=""/><path xmlns="http://www.w3.org/2000/svg" d="m209.5 35.5h15v15h-15zm0 0" fill="#186569" data-original="#000000" style="" class=""/><path xmlns="http://www.w3.org/2000/svg" d="m269.5 66.5h15v15h-15zm0 0" fill="#186569" data-original="#000000" style="" class=""/><path xmlns="http://www.w3.org/2000/svg" d="m239.5 66.5h15v15h-15zm0 0" fill="#186569" data-original="#000000" style="" class=""/><path xmlns="http://www.w3.org/2000/svg" d="m209.5 66.5h15v15h-15zm0 0" fill="#186569" data-original="#000000" style="" class=""/><path xmlns="http://www.w3.org/2000/svg" d="m179.5 66.5h15v15h-15zm0 0" fill="#186569" data-original="#000000" style="" class=""/><path xmlns="http://www.w3.org/2000/svg" d="m267.5 177h15v15h-15zm0 0" fill="#186569" data-original="#000000" style="" class=""/><path xmlns="http://www.w3.org/2000/svg" d="m297.5 177h15v15h-15zm0 0" fill="#186569" data-original="#000000" style="" class=""/><path xmlns="http://www.w3.org/2000/svg" d="m237.5 177h15v15h-15zm0 0" fill="#186569" data-original="#000000" style="" class=""/><path xmlns="http://www.w3.org/2000/svg" d="m267.5 208h15v15h-15zm0 0" fill="#186569" data-original="#000000" style="" class=""/><path xmlns="http://www.w3.org/2000/svg" d="m237.5 208h15v15h-15zm0 0" fill="#186569" data-original="#000000" style="" class=""/><path xmlns="http://www.w3.org/2000/svg" d="m297.5 208h15v15h-15zm0 0" fill="#186569" data-original="#000000" style="" class=""/></g></svg>
